<svg width="100" height="100" viewBox="0 0 100 100" fill="none" xmlns="http://www.w3.org/2000/svg">
<path d="M25.05 74.9997H87.5V16.6663C87.5 12.0705 83.7625 8.33301 79.1667 8.33301H25C19.975 8.33301 12.5 11.6622 12.5 20.833V79.1663C12.5 88.3372 19.975 91.6663 25 91.6663H87.5V83.333H25.05C23.125 83.283 20.8333 82.5247 20.8333 79.1663C20.8333 78.7455 20.8708 78.3705 20.9333 78.0288C21.4 75.6288 23.3667 75.0413 25.05 74.9997ZM36.0333 31.8413C37.7676 30.1291 40.1066 29.169 42.5437 29.169C44.9809 29.169 47.3199 30.1291 49.0542 31.8413L49.9875 32.7538L50.9167 31.8413C52.6517 30.1289 54.9914 29.1687 57.4292 29.1687C59.867 29.1687 62.2067 30.1289 63.9417 31.8413C64.8023 32.669 65.487 33.662 65.9546 34.7606C66.4223 35.8593 66.6634 37.041 66.6634 38.2351C66.6634 39.4291 66.4223 40.6109 65.9546 41.7096C65.487 42.8082 64.8023 43.8011 63.9417 44.6288L49.9917 58.333L36.0375 44.6288C35.1761 43.8017 34.4906 42.8091 34.0222 41.7106C33.5539 40.612 33.3122 39.4302 33.3119 38.236C33.3115 37.0418 33.5523 35.8598 34.02 34.7609C34.4876 33.6621 35.1724 32.669 36.0333 31.8413Z" fill="#FEFEFD"/>
</svg>
