<svg width="224" height="207" viewBox="0 0 224 207" fill="none" xmlns="http://www.w3.org/2000/svg">
<path d="M83.3491 169.49C129.104 169.49 166.196 132.399 166.196 86.6436C166.196 40.8886 129.104 3.79688 83.3491 3.79688C37.5942 3.79688 0.502441 40.8886 0.502441 86.6436C0.502441 132.399 37.5942 169.49 83.3491 169.49Z" fill="#E6E6E6"/>
<path d="M151.788 3.79688H220.226V21.807H151.788V3.79688Z" fill="white" stroke="#0E1D2B" stroke-width="6" stroke-linecap="round" stroke-linejoin="round"/>
<path d="M151.788 21.8066H220.226V39.8168H151.788V21.8066Z" fill="#9DC1E4" stroke="#0E1D2B" stroke-width="6" stroke-linecap="round" stroke-linejoin="round"/>
<path d="M151.788 39.8164H220.226V57.8266H151.788V39.8164Z" fill="#38628B" stroke="#0E1D2B" stroke-width="6" stroke-linecap="round" stroke-linejoin="round"/>
<path d="M34.6754 44.2554C34.6754 44.7251 34.2946 45.1059 33.8248 45.1059C33.3551 45.1059 32.9743 44.7251 32.9743 44.2554C32.9743 43.7856 33.3551 43.4048 33.8248 43.4048C34.2946 43.4048 34.6754 43.7856 34.6754 44.2554Z" fill="#4C241D" stroke="#0E1D2B" stroke-width="6"/>
<path d="M214.777 101.888C214.777 102.357 214.396 102.738 213.926 102.738C213.456 102.738 213.076 102.357 213.076 101.888C213.076 101.418 213.456 101.037 213.926 101.037C214.396 101.037 214.777 101.418 214.777 101.888Z" fill="#0E1D2B" stroke="#0E1D2B" stroke-width="6"/>
<path d="M182.359 141.51C182.359 141.98 181.978 142.36 181.508 142.36C181.038 142.36 180.657 141.98 180.657 141.51C180.657 141.04 181.038 140.659 181.508 140.659C181.978 140.659 182.359 141.04 182.359 141.51Z" fill="#0E1D2B" stroke="#0E1D2B" stroke-width="6"/>
<path d="M182.359 91.0815C182.359 91.5513 181.978 91.9321 181.508 91.9321C181.038 91.9321 180.657 91.5513 180.657 91.0815C180.657 90.6118 181.038 90.231 181.508 90.231C181.978 90.231 182.359 90.6118 182.359 91.0815Z" fill="#0E1D2B" stroke="#0E1D2B" stroke-width="6"/>
<path d="M46.7597 61.4302H127.143C128.902 61.4302 130.59 62.1292 131.834 63.3735C133.078 64.6178 133.777 66.3054 133.777 68.0651V122.348C133.777 126.253 132.226 129.998 129.465 132.76C126.703 135.521 122.958 137.073 119.052 137.073H54.8498C50.9445 137.073 47.1991 135.521 44.4376 132.76C41.6761 129.998 40.1247 126.253 40.1247 122.348V68.0651C40.1247 66.3054 40.8238 64.6178 42.0681 63.3735C43.3123 62.1292 45 61.4302 46.7597 61.4302Z" fill="#80B0D1" stroke="#0E1D2B" stroke-width="6" stroke-linecap="round" stroke-linejoin="round"/>
<path d="M20.6234 5.9082L30.81 16.0947" stroke="#0E1D2B" stroke-width="6" stroke-linecap="round" stroke-linejoin="round"/>
<path d="M30.81 5.9082L20.6234 16.0947" stroke="#0E1D2B" stroke-width="6" stroke-linecap="round" stroke-linejoin="round"/>
<path d="M151.788 25.4097V198.307" stroke="#0E1D2B" stroke-width="6" stroke-linecap="round" stroke-linejoin="round"/>
<path d="M211.264 188.581C183.017 178.104 153.098 172.855 122.971 173.093C76.4836 173.093 34.4695 184.745 4.37814 203.515" stroke="#0E1D2B" stroke-width="6" stroke-linecap="round" stroke-linejoin="round"/>
<path d="M32.9207 93.8495H25.7166C21.8953 93.8495 18.2306 92.3315 15.5285 89.6295C12.8265 86.9274 11.3085 83.2627 11.3085 79.4414H32.9207V93.8495Z" fill="white" stroke="#0E1D2B" stroke-width="6" stroke-linecap="round" stroke-linejoin="round"/>
<path d="M140.982 79.4414H162.594" stroke="#0E1D2B" stroke-width="6" stroke-linecap="round" stroke-linejoin="round"/>
<path d="M86.9511 18.2056C95.549 18.2056 103.795 21.6211 109.874 27.7007C115.954 33.7803 119.369 42.026 119.369 50.6238V79.4401H54.5329V50.6238C54.5329 42.026 57.9484 33.7803 64.028 27.7007C70.1076 21.6211 78.3533 18.2056 86.9511 18.2056Z" fill="white" stroke="#0E1D2B" stroke-width="6" stroke-linecap="round" stroke-linejoin="round"/>
<path d="M67.4318 47.0218C65.9824 47.0081 64.5607 47.4196 63.3427 48.2054C62.1247 48.9912 61.1638 50.1168 60.5789 51.4431C59.994 52.7693 59.8107 54.2379 60.0517 55.6672C60.2928 57.0965 60.9476 58.4238 61.9351 59.4848C68.779 65.6513 77.7437 68.93 86.9512 68.634C95.9129 68.9034 104.653 65.8209 111.463 59.9891C112.572 58.9736 113.348 57.6468 113.69 56.1826C114.032 54.7185 113.924 53.1851 113.379 51.7835C112.835 50.3819 111.88 49.1773 110.64 48.3277C109.399 47.478 107.931 47.0229 106.427 47.0218H67.4318Z" fill="#9DC1E4" stroke="#0E1D2B" stroke-width="6" stroke-linecap="round" stroke-linejoin="round"/>
<path d="M140.981 79.4414H32.9206V101.054H58.1348V184.077C58.1348 187.851 59.6342 191.471 62.3031 194.14C64.9721 196.809 68.592 198.308 72.3664 198.308H101.543C105.316 198.306 108.934 196.806 111.601 194.137C114.269 191.469 115.767 187.85 115.767 184.077V101.054H140.981V79.4414Z" fill="white" stroke="#0E1D2B" stroke-width="6" stroke-linecap="round" stroke-linejoin="round"/>
<path d="M86.9511 158.684V198.306" stroke="#0E1D2B" stroke-width="6" stroke-linecap="round" stroke-linejoin="round"/>
<path d="M76.145 104.653H97.7571" stroke="#0E1D2B" stroke-width="6" stroke-linecap="round" stroke-linejoin="round"/>
<path d="M112.165 11.0015V29.2782" stroke="#0E1D2B" stroke-width="6" stroke-linecap="round" stroke-linejoin="round"/>
</svg>
