<svg width="71" height="71" viewBox="0 0 71 71" fill="none" xmlns="http://www.w3.org/2000/svg">
<g clip-path="url(#clip0_70_171)">
<path d="M0 0.889648V70.1102H71V0.889648H0ZM2.95759 3.84724H68.0402V67.1504H2.95759V3.84724ZM17.1598 17.1021C17.1598 16.9046 17.5769 16.7559 17.8188 16.7559C20.36 16.6484 22.9033 16.5981 25.4468 16.6051C33.6518 16.6051 36.8401 21.1002 36.8401 26.8557C36.8401 34.3795 31.3864 37.6033 24.7058 37.6033C23.5742 37.6033 23.1926 37.5456 22.4072 37.5456V48.9167C22.4072 49.1586 22.314 49.2628 22.0721 49.2628H17.4948C17.253 49.2628 17.1598 49.1697 17.1598 48.9278V17.1021ZM22.4072 32.8197C23.0883 32.8663 23.6319 32.8663 24.8101 32.8663C28.2647 32.8663 31.524 31.6415 31.524 26.9622C31.524 23.2058 29.1899 21.2999 25.2383 21.2999C24.0712 21.2999 22.9508 21.3465 22.4072 21.3931V32.8197ZM47.8762 29.2941C45.531 29.2941 44.7455 30.4722 44.7455 31.4441C44.7455 32.5179 45.278 33.2479 48.4087 34.8654C53.0437 37.1196 54.5103 39.2563 54.5103 42.4335C54.5103 47.1595 50.8937 49.7021 46.0169 49.7021C43.4276 49.7021 41.2222 49.1586 39.9508 48.4308C39.7667 48.3376 39.7201 48.189 39.7201 47.9449V43.6006C39.7201 43.3121 39.8598 43.2079 40.0551 43.3587C41.8258 44.5101 43.8936 45.1207 46.0058 45.116C48.351 45.116 49.3228 44.1442 49.3228 42.8174C49.3228 41.7435 48.6417 40.8183 45.6707 39.2585C41.464 37.2483 39.7067 35.2026 39.7067 31.7813C39.7067 27.9673 42.6888 24.8011 47.854 24.8011C50.3967 24.8011 52.1872 25.1938 53.1701 25.6221C53.412 25.7729 53.4586 26.0148 53.4586 26.2122V30.2681C53.4586 30.51 53.3077 30.6608 53.0192 30.5566C51.7013 29.7822 49.7599 29.2852 47.8651 29.2852L47.8762 29.2941Z" fill="#FEFEFD"/>
</g>
<defs>
<clipPath id="clip0_70_171">
<rect width="71" height="71" fill="white"/>
</clipPath>
</defs>
</svg>
