<svg width="71" height="72" viewBox="0 0 71 72" fill="none" xmlns="http://www.w3.org/2000/svg">
<g clip-path="url(#clip0_70_175)">
<path d="M0 0.902344V71.0978H71V0.902344H0ZM2.95759 3.90159H68.0402V68.0963H2.95759V3.90159ZM20.073 40.6531L17.7278 49.6058C17.6812 49.8511 17.5769 49.9456 17.2885 49.9456H12.9442C12.6558 49.9456 12.6092 49.8398 12.6558 49.5001L21.0559 19.6988C21.1957 19.1588 21.2978 18.7268 21.3444 17.2373C21.3444 17.0371 21.4376 16.9336 21.5862 16.9336H27.7921C27.9895 16.9336 28.0805 16.9921 28.1271 17.2373L37.5457 49.5451C37.5923 49.7903 37.5457 49.9321 37.3038 49.9321H32.427C32.1852 49.9321 32.0343 49.8511 31.9877 49.6508L29.5493 40.6396H20.073V40.6531ZM28.3689 35.7773C27.5369 32.4608 25.5267 25.1843 24.799 21.6788H24.7524C24.1178 25.1821 22.5225 31.1243 21.2978 35.7773H28.3689ZM44.2241 38.8486C44.2818 42.9143 46.1766 45.6346 50.6718 45.6346C52.4291 45.6346 53.9312 45.4006 55.4909 44.6963C55.6884 44.6018 55.8371 44.6603 55.8371 44.9078V48.6698C55.8371 48.9623 55.7439 49.1153 55.5375 49.2683C53.9777 50.0536 52.0363 50.4046 49.5979 50.4046C41.7857 50.4046 38.8614 44.5681 38.8614 38.0296C38.8614 30.9511 42.4669 25.1618 48.8236 25.1618C55.2602 25.1618 57.5011 30.6586 57.5011 35.1113C57.5011 36.5536 57.3968 37.7371 57.2593 38.2861C57.2016 38.5313 57.1084 38.6146 56.8666 38.6618C56.2764 38.7676 54.5213 38.8621 51.9321 38.8621H44.2241V38.8486ZM50.2347 34.7221C51.7479 34.7221 52.2804 34.7221 52.4313 34.6748C52.4313 34.4746 52.4779 34.2991 52.4779 34.1596C52.4779 32.5193 51.6924 29.5178 48.6173 29.5178C45.7861 29.5178 44.5614 32.0491 44.2729 34.7221H50.2347Z" fill="#FEFEFD"/>
</g>
<defs>
<clipPath id="clip0_70_175">
<rect width="71" height="72" fill="white"/>
</clipPath>
</defs>
</svg>
