<svg width="71" height="72" viewBox="0 0 71 72" fill="none" xmlns="http://www.w3.org/2000/svg">
<g clip-path="url(#clip0_70_173)">
<path d="M0 0.902344V71.0978H71V0.902344H0ZM2.95759 3.90159H68.0402V68.0963H2.95759V3.90159ZM24.6259 40.6531L22.2807 49.6418C22.2341 49.9006 22.1409 49.9456 21.8525 49.9456H17.5082C17.2086 49.9456 17.162 49.8511 17.2086 49.5113L25.6088 19.6763C25.7597 19.1363 25.8507 18.6571 25.8972 17.1676C25.8972 16.9673 26.0015 16.8751 26.1524 16.8751H32.3472C32.5446 16.8751 32.6467 16.9223 32.6933 17.1676L42.1119 49.5586C42.1696 49.8038 42.1119 49.9456 41.87 49.9456H36.9932C36.7381 49.9456 36.6005 49.8871 36.5539 49.6868L34.1044 40.6508H24.617L24.6259 40.6531ZM32.8774 35.7773C32.0454 32.4608 30.0929 25.1956 29.3652 21.6788H29.3075C28.684 25.1821 27.1109 31.1243 25.8995 35.7773H32.8774ZM46.1899 19.1026C46.1899 17.1698 47.5079 16.0313 49.2185 16.0313C51.0224 16.0313 52.2471 17.2733 52.2471 19.1026C52.2471 21.0826 50.9758 22.1738 49.1608 22.1738C47.3925 22.1738 46.1788 21.0848 46.1788 19.1026H46.1899ZM46.525 25.9223C46.525 25.6883 46.6182 25.5938 46.86 25.5938H51.5061C51.7723 25.5938 51.8633 25.6883 51.8633 25.9448V49.6283C51.8633 49.8736 51.8167 49.9681 51.5172 49.9681H46.9399C46.6403 49.9681 46.5472 49.8263 46.5472 49.5811V25.9201L46.525 25.9223Z" fill="#FEFEFD"/>
</g>
<defs>
<clipPath id="clip0_70_173">
<rect width="71" height="72" fill="white"/>
</clipPath>
</defs>
</svg>
