<svg width="227" height="223" viewBox="0 0 227 223" fill="none" xmlns="http://www.w3.org/2000/svg">
<path d="M94.8561 200.459C142.978 200.459 181.988 161.449 181.988 113.327C181.988 65.2056 142.978 26.1953 94.8561 26.1953C46.7345 26.1953 7.72424 65.2056 7.72424 113.327C7.72424 161.449 46.7345 200.459 94.8561 200.459Z" fill="#E5EFEF"/>
<path d="M19.0892 3.46533V11.042" stroke="#0E1D2B" stroke-width="6" stroke-linecap="round" stroke-linejoin="round"/>
<path d="M19.0892 26.1953V33.772" stroke="#0E1D2B" stroke-width="6" stroke-linecap="round" stroke-linejoin="round"/>
<path d="M3.93591 18.6196H11.5126" stroke="#0E1D2B" stroke-width="6" stroke-linecap="round" stroke-linejoin="round"/>
<path d="M26.666 18.6196H34.2427" stroke="#0E1D2B" stroke-width="6" stroke-linecap="round" stroke-linejoin="round"/>
<path d="M20.188 70.4017C20.1881 70.6089 20.1269 70.8115 20.012 70.984C19.8969 71.1569 19.7331 71.2918 19.5413 71.3715C19.3495 71.4513 19.1384 71.4724 18.9346 71.4321C18.7309 71.3918 18.5437 71.292 18.3967 71.1452C18.2497 70.9985 18.1495 70.8115 18.1088 70.6078C18.0682 70.4041 18.0888 70.1929 18.1682 70.001C18.2476 69.8091 18.3822 69.645 18.5548 69.5296C18.7271 69.4144 18.9296 69.3528 19.1368 69.3525C19.415 69.3532 19.6818 69.4638 19.8787 69.6604C20.0757 69.857 20.1868 70.1235 20.188 70.4017Z" fill="#0E1D2B" stroke="#0E1D2B" stroke-width="6"/>
<path d="M181.988 83.0207C196.634 83.0207 208.507 71.148 208.507 56.5023C208.507 41.8566 196.634 29.9839 181.988 29.9839C167.342 29.9839 155.47 41.8566 155.47 56.5023C155.47 71.148 167.342 83.0207 181.988 83.0207Z" fill="white" stroke="#0E1D2B" stroke-width="6" stroke-linecap="round" stroke-linejoin="round"/>
<path d="M79.7027 83.0207C94.3484 83.0207 106.221 71.148 106.221 56.5023C106.221 41.8566 94.3484 29.9839 79.7027 29.9839C65.057 29.9839 53.1843 41.8566 53.1843 56.5023C53.1843 71.148 65.057 83.0207 79.7027 83.0207Z" fill="white" stroke="#0E1D2B" stroke-width="6" stroke-linecap="round" stroke-linejoin="round"/>
<path d="M179.276 83.0199C167.693 83.4798 156.746 88.4396 148.763 96.8449C140.78 105.25 136.391 116.438 136.528 128.029V143.633C136.528 145.643 135.73 147.57 134.309 148.991C132.888 150.412 130.961 151.21 128.951 151.21C126.942 151.21 125.015 150.412 123.594 148.991C122.173 147.57 121.375 145.643 121.375 143.633V128.029C121.512 116.437 117.122 105.249 109.138 96.8437C101.154 88.4383 90.2067 83.4788 78.6231 83.0199C72.8338 82.9116 67.0809 83.9585 61.7009 86.0994C56.3209 88.2403 51.4216 91.4322 47.2894 95.4885C43.1573 99.5448 39.8752 104.384 37.6351 109.724C35.3949 115.063 34.2417 120.795 34.2427 126.586V151.21C34.2427 169.295 41.427 186.64 54.2151 199.428C67.0032 212.216 84.3477 219.4 102.433 219.4H155.47C173.555 219.4 190.899 212.216 203.687 199.428C216.475 186.64 223.66 169.295 223.66 151.21V126.586C223.661 120.795 222.507 115.062 220.267 109.723C218.027 104.383 214.744 99.5435 210.612 95.4871C206.479 91.4308 201.579 88.239 196.199 86.0983C190.818 83.9577 185.065 82.9111 179.276 83.0199Z" fill="white" stroke="#0E1D2B" stroke-width="6" stroke-linecap="round" stroke-linejoin="round"/>
<path d="M148.779 108.216C141.98 108.266 135.477 111.001 130.686 115.827C125.895 111 119.39 108.265 112.589 108.216C97.6027 108.216 85.4497 121.52 85.4497 137.935C85.4497 154.35 117.116 182.513 130.686 192.419C144.256 182.513 175.927 154.346 175.927 137.951C175.927 121.555 163.77 108.216 148.779 108.216Z" fill="#80B0D1" stroke="#0E1D2B" stroke-width="6" stroke-linecap="round" stroke-linejoin="round"/>
</svg>
