<svg width="227" height="228" viewBox="0 0 227 228" fill="none" xmlns="http://www.w3.org/2000/svg">
<path d="M125.17 209.339C173.467 209.339 212.619 170.187 212.619 121.89C212.619 73.5936 173.467 34.4414 125.17 34.4414C76.8736 34.4414 37.7214 73.5936 37.7214 121.89C37.7214 170.187 76.8736 209.339 125.17 209.339Z" fill="#E6E6E6"/>
<path d="M83.244 21.7603C76.4361 21.8079 69.9239 24.5486 65.1307 29.3835C60.3362 24.5484 53.8227 21.8077 47.0136 21.7603C32.0066 21.7603 19.8398 35.0677 19.8398 51.5157C19.8398 67.9637 51.5419 96.145 65.1307 106.065C78.7157 96.145 110.418 67.9485 110.418 51.5157C110.418 35.0829 98.251 21.7603 83.244 21.7603Z" fill="#38628B" stroke="#0E1D2B" stroke-width="6" stroke-linecap="round" stroke-linejoin="round"/>
<path d="M185.902 124.419C179.094 124.467 172.581 127.207 167.788 132.042C162.994 127.207 156.48 124.466 149.671 124.419C134.664 124.419 122.497 137.726 122.497 154.174C122.497 170.622 154.199 198.804 167.788 208.723C181.373 198.804 213.075 170.607 213.075 154.174C213.075 137.742 200.909 124.419 185.902 124.419Z" fill="white" stroke="#0E1D2B" stroke-width="6" stroke-linecap="round" stroke-linejoin="round"/>
<path d="M94.7534 121.89V129.494" stroke="#0E1D2B" stroke-width="6" stroke-linecap="round" stroke-linejoin="round"/>
<path d="M94.7534 144.703V152.307" stroke="#0E1D2B" stroke-width="6" stroke-linecap="round" stroke-linejoin="round"/>
<path d="M79.5448 137.099H87.149" stroke="#0E1D2B" stroke-width="6" stroke-linecap="round" stroke-linejoin="round"/>
<path d="M102.358 137.099H109.962" stroke="#0E1D2B" stroke-width="6" stroke-linecap="round" stroke-linejoin="round"/>
<path d="M138.478 26.8373C143.727 26.8373 147.983 22.5816 147.983 17.332C147.983 12.0823 143.727 7.82666 138.478 7.82666C133.228 7.82666 128.972 12.0823 128.972 17.332C128.972 22.5816 133.228 26.8373 138.478 26.8373Z" stroke="#0E1D2B" stroke-width="6" stroke-linecap="round" stroke-linejoin="round"/>
<path d="M13.0076 224.546C18.2572 224.546 22.5129 220.291 22.5129 215.041C22.5129 209.791 18.2572 205.536 13.0076 205.536C7.75793 205.536 3.50226 209.791 3.50226 215.041C3.50226 220.291 7.75793 224.546 13.0076 224.546Z" stroke="#0E1D2B" stroke-width="6" stroke-linecap="round" stroke-linejoin="round"/>
<path d="M115.769 100.5L115.199 103.365L115.769 100.5C115.563 100.459 115.373 100.357 115.224 100.208C115.075 100.059 114.974 99.8697 114.933 99.6633C114.892 99.4568 114.913 99.2427 114.993 99.0482C115.074 98.8537 115.21 98.6875 115.385 98.5705C115.56 98.4535 115.766 98.3911 115.977 98.3911C116.259 98.3911 116.53 98.5033 116.729 98.7029C116.929 98.9025 117.041 99.1733 117.041 99.4556C117.041 99.6661 116.979 99.8719 116.862 100.047C116.745 100.222 116.579 100.358 116.384 100.439C116.19 100.52 115.976 100.541 115.769 100.5Z" fill="#0E1D2B" stroke="#0E1D2B" stroke-width="6"/>
<path d="M219.698 91.8516C219.698 92.0621 219.636 92.2679 219.519 92.443C219.402 92.618 219.236 92.7545 219.041 92.835C218.847 92.9156 218.633 92.9367 218.426 92.8956L217.854 95.7699L218.426 92.8956C218.22 92.8545 218.03 92.7532 217.881 92.6043C217.732 92.4554 217.631 92.2657 217.59 92.0592C217.549 91.8528 217.57 91.6387 217.65 91.4442C217.731 91.2497 217.867 91.0835 218.042 90.9665C218.217 90.8495 218.423 90.7871 218.634 90.7871C218.916 90.7871 219.187 90.8993 219.386 91.0989C219.586 91.2985 219.698 91.5693 219.698 91.8516Z" fill="#0E1D2B" stroke="#0E1D2B" stroke-width="6"/>
<path d="M17.5278 5.38003L18.672 8.15327L17.5278 5.38003C17.3333 5.46029 17.1193 5.48109 16.9129 5.43979C16.7066 5.39849 16.5171 5.29695 16.3684 5.14801C16.2197 4.99906 16.1186 4.80939 16.0777 4.60295C16.0367 4.39652 16.0579 4.18259 16.1386 3.9882C16.2192 3.79381 16.3556 3.62768 16.5306 3.5108C16.7056 3.39392 16.9114 3.33154 17.1218 3.33154C17.2618 3.33154 17.4004 3.35914 17.5296 3.41276C17.6589 3.46638 17.7763 3.54497 17.8752 3.64402C17.9741 3.74308 18.0525 3.86066 18.1058 3.99004L20.8791 2.84588L18.1058 3.99004C18.1592 4.11942 18.1865 4.25805 18.1863 4.398C18.1859 4.60845 18.1231 4.81406 18.0059 4.98885C17.8887 5.16364 17.7223 5.29977 17.5278 5.38003Z" fill="#0E1D2B" stroke="#0E1D2B" stroke-width="6"/>
<path d="M214.624 210.763L214.053 213.637L214.624 210.763C214.418 210.722 214.228 210.62 214.079 210.471C213.93 210.323 213.829 210.133 213.788 209.926C213.747 209.72 213.768 209.506 213.848 209.311C213.929 209.117 214.065 208.951 214.241 208.834C214.416 208.717 214.621 208.654 214.832 208.654C214.972 208.654 215.11 208.682 215.239 208.735C215.368 208.789 215.486 208.867 215.585 208.966C215.683 209.065 215.762 209.182 215.815 209.311C215.869 209.441 215.896 209.579 215.896 209.719C215.896 209.929 215.834 210.135 215.717 210.31C215.6 210.485 215.434 210.622 215.239 210.702C215.045 210.783 214.831 210.804 214.624 210.763Z" fill="#0E1D2B" stroke="#0E1D2B" stroke-width="6"/>
<path d="M14.3837 110.864C14.3837 111.074 14.3212 111.28 14.2043 111.455C14.0873 111.63 13.9211 111.767 13.7266 111.847C13.532 111.928 13.318 111.949 13.1115 111.908L12.5416 114.773L13.1115 111.908C12.9051 111.867 12.7154 111.765 12.5665 111.616C12.4176 111.468 12.3163 111.278 12.2752 111.071C12.2341 110.865 12.2552 110.651 12.3358 110.456C12.4163 110.262 12.5528 110.096 12.7278 109.979C12.9029 109.862 13.1087 109.799 13.3192 109.799C13.6015 109.799 13.8723 109.911 14.0719 110.111C14.2715 110.311 14.3837 110.581 14.3837 110.864Z" fill="#0E1D2B" stroke="#0E1D2B" stroke-width="6"/>
<path d="M170.948 59.1157C168.332 59.1339 165.829 60.1863 163.986 62.0434C162.141 60.1868 159.638 59.1345 157.021 59.1157C154.12 59.2538 151.392 60.5356 149.435 62.6806C147.477 64.8256 146.449 67.6589 146.576 70.5601C146.576 76.8754 158.743 87.7153 163.986 91.5288C169.206 87.7267 181.392 76.8754 181.392 70.5601C181.519 67.6589 180.491 64.8256 178.534 62.6806C176.576 60.5356 173.848 59.2538 170.948 59.1157Z" fill="#80B0D1" stroke="#0E1D2B" stroke-width="6" stroke-linecap="round" stroke-linejoin="round"/>
<path d="M212.771 5.88672C210.155 5.90486 207.652 6.95734 205.809 8.81436C203.965 6.95781 201.461 5.90551 198.844 5.88672C195.943 6.02476 193.215 7.30663 191.258 9.45162C189.3 11.5966 188.272 14.4299 188.399 17.3311C188.399 23.6464 200.566 34.4863 205.809 38.2998C211.03 34.4977 223.215 23.6464 223.215 17.3311C223.342 14.4299 222.315 11.5966 220.357 9.45162C218.399 7.30663 215.672 6.02476 212.771 5.88672Z" fill="white" stroke="#0E1D2B" stroke-width="6" stroke-linecap="round" stroke-linejoin="round"/>
<path d="M49.2798 138.96C46.6637 138.979 44.1609 140.031 42.3181 141.888C40.4734 140.032 37.9697 138.979 35.3526 138.96C32.4519 139.098 29.7241 140.38 27.7666 142.525C25.809 144.67 24.7812 147.504 24.9082 150.405C24.9082 156.72 37.094 167.56 42.3181 171.374C47.5384 167.571 59.7242 156.72 59.7242 150.405C59.8512 147.504 58.8234 144.67 56.8659 142.525C54.9083 140.38 52.1805 139.098 49.2798 138.96Z" fill="#80B0D1" stroke="#0E1D2B" stroke-width="6" stroke-linecap="round" stroke-linejoin="round"/>
<path d="M98.7073 184.586C96.0911 184.604 93.5884 185.657 91.7456 187.514C89.9009 185.657 87.3972 184.605 84.7801 184.586C81.8794 184.724 79.1516 186.006 77.194 188.151C75.2365 190.296 74.2086 193.129 74.3356 196.03C74.3356 202.346 86.5215 213.186 91.7456 216.999C96.9659 213.197 109.152 202.346 109.152 196.03C109.279 193.129 108.251 190.296 106.293 188.151C104.336 186.006 101.608 184.724 98.7073 184.586Z" fill="#38628B" stroke="#0E1D2B" stroke-width="6" stroke-linecap="round" stroke-linejoin="round"/>
</svg>
