<svg width="104" height="100" viewBox="0 0 104 100" fill="none" xmlns="http://www.w3.org/2000/svg">
<path d="M34.4045 10.2254C33.1859 11.3975 32.5013 12.9869 32.5013 14.6442C32.5013 16.3014 33.1859 17.8909 34.4045 19.0629L66.5795 50.0004L34.4045 80.9379C33.2204 82.1167 32.5653 83.6954 32.5801 85.3342C32.5949 86.9729 33.2785 88.5405 34.4836 89.6993C35.6888 90.8581 37.3191 91.5154 39.0233 91.5296C40.7276 91.5439 42.3695 90.9139 43.5955 89.7754L80.366 54.4192C81.5845 53.2471 82.2691 51.6577 82.2691 50.0004C82.2691 48.3431 81.5845 46.7537 80.366 45.5817L43.5955 10.2254C42.3765 9.05373 40.7235 8.39551 39 8.39551C37.2764 8.39551 35.6234 9.05373 34.4045 10.2254Z" fill="#FEFEFD"/>
</svg>
