<svg width="104" height="100" viewBox="0 0 104 100" fill="none" xmlns="http://www.w3.org/2000/svg">
<path d="M69.5955 10.2254C70.8141 11.3975 71.4986 12.9869 71.4986 14.6442C71.4986 16.3014 70.8141 17.8909 69.5955 19.0629L37.4205 50.0004L69.5955 80.9379C70.7795 82.1167 71.4347 83.6954 71.4199 85.3342C71.4051 86.9729 70.7215 88.5405 69.5163 89.6993C68.3112 90.8581 66.6809 91.5154 64.9766 91.5296C63.2723 91.5439 61.6304 90.9139 60.4045 89.7754L23.634 54.4192C22.4154 53.2471 21.7309 51.6577 21.7309 50.0004C21.7309 48.3431 22.4154 46.7537 23.634 45.5817L60.4045 10.2254C61.6234 9.05373 63.2764 8.39551 65 8.39551C66.7236 8.39551 68.3766 9.05373 69.5955 10.2254Z" fill="#FEFEFD"/>
</svg>
