<svg width="100" height="100" viewBox="0 0 100 100" fill="none" xmlns="http://www.w3.org/2000/svg">
<path d="M66.1328 5.4356C64.5508 5.42975 63.2422 5.87115 62.0508 6.67975C58.3203 9.19537 55.625 16.3712 54.3555 26.8751L56.4453 28.6329C59.3945 20.1368 62.2852 11.3087 67.6172 5.55865C67.0899 5.47662 66.6016 5.4356 66.1328 5.4356ZM71.4648 6.7442C66.0547 11.7462 62.7539 21.3868 59.3359 31.0547L61.4453 32.8321C63.6328 28.1446 65.8008 23.2422 68.3008 18.9512C70.5469 15.0743 73.0859 11.6465 76.3477 9.49224C74.5703 8.30084 72.9492 7.39264 71.4648 6.7442ZM79.4336 11.7598C76.4649 13.293 73.8281 16.459 71.4258 20.5665C76.5625 17.4297 80.1563 15.7989 83.0859 14.8672C82.4414 14.2715 81.7578 13.6641 81.0156 13.045C80.4883 12.5938 79.9609 12.168 79.4336 11.7598ZM85.957 17.7129C82.2461 18.5782 77.6172 20.4883 68.125 26.8751C67.4805 28.1837 66.875 29.5118 66.25 30.8399C73.9844 27.129 82.207 22.8126 89.5117 22.3633C88.6719 20.9376 87.5 19.377 85.957 17.7129ZM90.8008 25.8594C89.6289 25.8594 88.3594 26.0352 87.0117 26.3282C85.5664 28.086 84.5703 30.4883 84.082 32.9102C83.7891 34.2969 83.6914 35.7032 83.7109 36.9532C87.2461 34.961 89.5899 32.8321 90.5664 30.6251C91.2305 29.1602 91.4063 27.6368 90.9766 25.8594H90.8008ZM82.0117 27.793C80.1758 28.4571 78.2422 29.2579 76.2695 30.1172C74.2383 34.043 73.3789 37.9102 73.3008 41.2891C75.8789 40.4688 78.2031 39.5899 80.2734 38.6719C80.0391 36.7188 80.1562 34.4922 80.625 32.2071C80.918 30.7227 81.3867 29.2383 82.0117 27.793ZM52.6953 30.0782L48.9258 34.5704L65.3711 48.379L69.1406 43.8868L52.6953 30.0782ZM71.5039 32.2852C69.1992 33.3594 66.8945 34.4532 64.6094 35.4883L69.8633 39.8829C70.0391 37.461 70.5664 34.9024 71.5039 32.2852ZM46.6602 37.2657L36.875 48.9258L53.3398 62.7344L63.125 51.0743L46.6602 37.2657ZM81.4844 42.0704C79.4531 42.9493 77.207 43.7696 74.8047 44.5313C76.4063 44.7071 78.457 45.0001 80.5469 45.4688C82.7344 45.9571 84.9219 46.6797 86.4649 47.5391C88.0078 48.418 88.7695 49.3165 88.8867 50.2149V50.2344C89.043 51.4649 88.8086 52.3438 88.2617 53.2032C87.7149 54.0625 86.7773 54.9024 85.5078 55.7032C82.9297 57.2657 79.043 58.5352 75.0195 59.8047C71.0156 61.0938 66.8555 62.3633 63.5352 64.2774C60.2148 66.211 57.5586 69.1016 57.6172 73.086C57.6563 76.8165 59.9219 80.0196 62.9102 82.6954C65.8984 85.3711 69.707 87.6368 73.4961 89.5118C81.0742 93.2422 88.5742 95.4297 88.5742 95.4297L89.5508 92.0704C89.5508 92.0704 82.2852 89.9415 75.0586 86.3477C71.4453 84.5704 67.8516 82.4024 65.2539 80.0782C62.6563 77.7344 61.1719 75.3321 61.1328 73.0469C61.0938 70.5469 62.5195 68.9454 65.293 67.3243C68.0859 65.7227 72.0703 64.4336 76.0938 63.1641C80.1172 61.8946 84.1797 60.6251 87.3438 58.6915C88.9063 57.7344 90.293 56.5821 91.2305 55.0782C92.1875 53.5938 92.6172 51.7383 92.3633 49.7852C92.0508 47.3438 90.2539 45.6446 88.2031 44.4727C86.2109 43.3399 83.8281 42.6172 81.4844 42.0704ZM34.6289 51.6211L30.8594 56.1133L47.3047 69.9219L51.0742 65.4297L34.6289 51.6211ZM26.6992 58.711C24.1211 59.5313 21.7773 60.4102 19.7266 61.3282C19.9609 63.2813 19.8438 65.5079 19.3691 67.793C19.0664 69.2774 18.6113 70.7813 17.9746 72.2071C19.8242 71.543 21.7578 70.7422 23.7305 69.8829C25.7617 65.9571 26.6211 62.0899 26.6992 58.711ZM30.1367 60.1172C29.9609 62.5391 29.4336 65.0977 28.4961 67.7149C30.8008 66.6407 33.1055 65.5469 35.3711 64.5118L34.3555 63.6524L30.1367 60.1172ZM16.2988 63.0469C12.7676 65.0391 10.4121 67.168 9.42969 69.3751C8.77539 70.8399 8.5957 72.3633 9.02539 74.1407C10.25 74.1602 11.584 73.9844 13.0039 73.6719C14.4434 71.9141 15.4336 69.5118 15.9258 67.0899C16.2129 65.7032 16.3223 64.2969 16.2988 63.0469ZM38.5547 67.168C36.3672 71.8555 34.1992 76.7579 31.6992 81.0547C29.4531 84.9219 26.9141 88.3399 23.6719 90.5079C25.4297 91.6993 27.0508 92.5977 28.5352 93.2618C33.9453 88.2618 37.2461 78.6133 40.6641 68.9454L38.5547 67.168ZM33.75 69.1602C26.0156 72.8711 17.7793 77.1876 10.498 77.6368C11.334 79.0626 12.5078 80.625 14.043 82.2852C17.7695 81.4258 22.3828 79.4922 31.875 73.1251C32.5195 71.8165 33.125 70.4883 33.75 69.1602ZM43.5547 71.3672C40.6055 79.8633 37.7148 88.6915 32.3828 94.4336C34.6484 94.8047 36.3867 94.375 37.9492 93.3204C41.6797 90.8008 44.375 83.6329 45.6445 73.1251L43.5547 71.3672ZM28.5742 79.4336C23.4375 82.5782 19.8438 84.1993 16.9082 85.1172C17.5625 85.7227 18.252 86.3282 18.9922 86.9532C19.5293 87.4024 20.0586 87.8321 20.5664 88.2422C23.5352 86.6993 26.1719 83.5547 28.5742 79.4336Z" fill="#FEFEFD"/>
</svg>
