<svg width="71" height="72" viewBox="0 0 71 72" fill="none" xmlns="http://www.w3.org/2000/svg">
<path d="M21.0781 47.25V56.25C21.0781 57.7419 20.4937 59.1726 19.4535 60.2275C18.4132 61.2824 17.0024 61.875 15.5312 61.875C14.0601 61.875 12.6493 61.2824 11.609 60.2275C10.5688 59.1726 9.98438 57.7419 9.98438 56.25C9.98437 55.9517 10.1013 55.6655 10.3093 55.4545C10.5174 55.2436 10.7995 55.125 11.0938 55.125C11.388 55.125 11.6701 55.2436 11.8782 55.4545C12.0862 55.6655 12.2031 55.9517 12.2031 56.25C12.2031 57.1451 12.5538 58.0036 13.1779 58.6365C13.8021 59.2695 14.6486 59.625 15.5312 59.625C16.4139 59.625 17.2604 59.2695 17.8846 58.6365C18.5087 58.0036 18.8594 57.1451 18.8594 56.25V47.25C18.8594 46.9517 18.9763 46.6655 19.1843 46.4545C19.3924 46.2436 19.6745 46.125 19.9688 46.125C20.263 46.125 20.5451 46.2436 20.7532 46.4545C20.9612 46.6655 21.0781 46.9517 21.0781 47.25ZM33.4477 52.7907C31.0625 52.1438 29.9531 51.7219 29.9531 50.625C29.9531 49.05 31.0902 48.0938 33.0039 48.0938C34.2429 48.0917 35.4494 48.4963 36.443 49.2469C36.671 49.4408 36.9656 49.535 37.2621 49.5086C37.5586 49.4822 37.8326 49.3375 38.0238 49.1063C38.2151 48.875 38.3079 48.5762 38.2819 48.2756C38.2559 47.975 38.1132 47.6971 37.8852 47.5032C36.472 46.4406 34.7631 45.8597 33.0039 45.8438C29.8422 45.8438 27.7344 47.7563 27.7344 50.625C27.7344 53.4938 30.591 54.3375 32.893 54.9563C35.1949 55.575 36.6094 56.0813 36.6094 57.375C36.6094 58.0782 36.6094 59.9063 33.0039 59.9063C31.7579 59.8987 30.5455 59.4954 29.5371 58.7532C29.312 58.5647 29.0228 58.4738 28.7321 58.5001C28.4413 58.5264 28.1726 58.6679 27.984 58.8938C27.7965 59.1266 27.7061 59.4245 27.732 59.7239C27.7579 60.0234 27.8981 60.3007 28.1227 60.4969C29.5358 61.5594 31.2447 62.1404 33.0039 62.1563C36.6926 62.1563 38.8281 60.4125 38.8281 57.375C38.8281 54.3375 35.8605 53.4094 33.4477 52.7907ZM58.7969 24.7782V60.75C58.7969 61.6451 58.4462 62.5036 57.8221 63.1365C57.1979 63.7695 56.3514 64.125 55.4688 64.125H48.8125C48.5183 64.125 48.2361 64.0065 48.0281 63.7955C47.82 63.5845 47.7031 63.2984 47.7031 63C47.7031 62.7017 47.82 62.4155 48.0281 62.2045C48.2361 61.9936 48.5183 61.875 48.8125 61.875H55.4688C55.763 61.875 56.0452 61.7565 56.2532 61.5455C56.4612 61.3345 56.5781 61.0484 56.5781 60.75V25.875H42.1562C41.862 25.875 41.5799 25.7565 41.3718 25.5455C41.1638 25.3345 41.0469 25.0484 41.0469 24.75V10.125H15.5312C15.237 10.125 14.9549 10.2436 14.7468 10.4545C14.5388 10.6655 14.4219 10.9517 14.4219 11.25V40.5C14.4219 40.7984 14.305 41.0845 14.0969 41.2955C13.8889 41.5065 13.6067 41.625 13.3125 41.625C13.0183 41.625 12.7361 41.5065 12.5281 41.2955C12.32 41.0845 12.2031 40.7984 12.2031 40.5V11.25C12.2031 10.3549 12.5538 9.49648 13.1779 8.86354C13.8021 8.23061 14.6486 7.87503 15.5312 7.87503H42.1562C42.3022 7.8703 42.4473 7.89807 42.5815 7.95638C42.7156 8.01469 42.8356 8.10213 42.9328 8.21253L58.4641 23.9344C58.6679 24.157 58.7861 24.4465 58.7969 24.75V24.7782ZM43.2656 23.625H54.9973L43.2656 11.7282V23.625Z" fill="#FEFEFD"/>
</svg>
