<svg width="71" height="71" viewBox="0 0 71 71" fill="none" xmlns="http://www.w3.org/2000/svg">
<path d="M50.7539 26.0703C52.8031 24.8004 54.3828 22.8974 55.254 20.6496C56.1252 18.4017 56.2404 15.9312 55.5823 13.612C54.9241 11.2928 53.5284 9.25105 51.6063 7.79585C49.6843 6.34065 47.3405 5.55117 44.9297 5.54688H26.0703C23.6595 5.55117 21.3157 6.34065 19.3937 7.79585C17.4716 9.25105 16.0759 11.2928 15.4177 13.612C14.7596 15.9312 14.8748 18.4017 15.746 20.6496C16.6172 22.8974 18.1969 24.8004 20.2461 26.0703C18.6342 27.0602 17.303 28.4468 16.3796 30.0976C15.4561 31.7484 14.9713 33.6084 14.9713 35.5C14.9713 37.3916 15.4561 39.2515 16.3796 40.9024C17.303 42.5532 18.6342 43.9398 20.2461 44.9297C18.5999 45.9451 17.2478 47.3733 16.3239 49.0726C15.4001 50.7719 14.9365 52.6832 14.9793 54.6169C15.022 56.5506 15.5696 58.4395 16.5677 60.0963C17.5658 61.7531 18.9798 63.1201 20.6692 64.0618C22.3587 65.0034 24.265 65.487 26.1991 65.4646C28.1331 65.4421 30.0277 64.9144 31.6949 63.9338C33.362 62.9531 34.7439 61.5537 35.7032 59.8742C36.6626 58.1947 37.1662 56.2936 37.1641 54.3594V43.4043C38.2737 44.5144 39.6063 45.3763 41.0738 45.9332C42.5412 46.4902 44.1102 46.7293 45.6769 46.635C47.2436 46.5406 48.7725 46.1149 50.1625 45.3859C51.5526 44.6569 52.7721 43.6412 53.7405 42.406C54.7089 41.1708 55.4042 39.7441 55.7804 38.2203C56.1566 36.6965 56.2051 35.1101 55.9229 33.5661C55.6406 32.0222 55.0339 30.5556 54.1428 29.2635C53.2518 27.9713 52.0967 26.883 50.7539 26.0703ZM52.6953 16.6406C52.688 18.6979 51.8675 20.6689 50.4127 22.1237C48.958 23.5784 46.987 24.3989 44.9297 24.4062H37.1641V8.875H44.9297C46.987 8.88231 48.958 9.70282 50.4127 11.1576C51.8675 12.6123 52.688 14.5833 52.6953 16.6406ZM18.3047 16.6406C18.312 14.5833 19.1325 12.6123 20.5873 11.1576C22.042 9.70282 24.013 8.88231 26.0703 8.875H33.8359V24.4062H26.0703C24.013 24.3989 22.042 23.5784 20.5873 22.1237C19.1325 20.6689 18.312 18.6979 18.3047 16.6406ZM18.3047 35.5C18.312 33.4427 19.1325 31.4717 20.5873 30.0169C22.042 28.5622 24.013 27.7417 26.0703 27.7344H33.8359V43.2656H26.0703C24.013 43.2583 22.042 42.4378 20.5873 40.9831C19.1325 39.5283 18.312 37.5573 18.3047 35.5ZM26.0703 62.125C24.0107 62.125 22.0355 61.3068 20.5792 59.8505C19.1228 58.3942 18.3047 56.4189 18.3047 54.3594C18.3047 52.2998 19.1228 50.3246 20.5792 48.8682C22.0355 47.4119 24.0107 46.5937 26.0703 46.5937H33.8359V54.3594C33.8286 56.4167 33.0081 58.3877 31.5534 59.8424C30.0986 61.2972 28.1276 62.1177 26.0703 62.125ZM44.9297 43.2656C42.8701 43.2656 40.8949 42.4475 39.4386 40.9911C37.9822 39.5348 37.1641 37.5596 37.1641 35.5C37.1641 33.4404 37.9822 31.4652 39.4386 30.0089C40.8949 28.5525 42.8701 27.7344 44.9297 27.7344C46.9893 27.7344 48.9645 28.5525 50.4208 30.0089C51.8772 31.4652 52.6953 33.4404 52.6953 35.5C52.6953 37.5596 51.8772 39.5348 50.4208 40.9911C48.9645 42.4475 46.9893 43.2656 44.9297 43.2656Z" fill="#FEFEFD"/>
</svg>
