<svg width="71" height="72" viewBox="0 0 71 72" fill="none" xmlns="http://www.w3.org/2000/svg">
<path d="M13.3125 54C13.3125 57.0938 15.559 59.625 18.3047 59.625C19.4718 59.632 20.5958 59.1781 21.4387 58.3594C21.6642 58.1689 21.9523 58.0718 22.2454 58.0874C22.5385 58.1031 22.815 58.2303 23.0195 58.4438C23.2138 58.6696 23.3137 58.9632 23.2982 59.2624C23.2827 59.5617 23.1529 59.843 22.9363 60.0469C21.6683 61.2158 20.0183 61.867 18.3047 61.875C14.3387 61.875 11.0938 58.3313 11.0938 54C11.0938 49.6688 14.3387 46.125 18.3047 46.125C20.0183 46.1331 21.6683 46.7843 22.9363 47.9532C23.1529 48.157 23.2827 48.4384 23.2982 48.7376C23.3137 49.0369 23.2138 49.3305 23.0195 49.5563C22.815 49.7697 22.5385 49.897 22.2454 49.9126C21.9523 49.9283 21.6642 49.8311 21.4387 49.6407C20.5958 48.822 19.4718 48.3681 18.3047 48.375C15.559 48.375 13.3125 50.9063 13.3125 54ZM35.6664 52.7907C33.2813 52.1438 32.1719 51.7219 32.1719 50.625C32.1719 49.05 33.309 48.0938 35.2227 48.0938C36.4617 48.0917 37.6681 48.4963 38.6617 49.2469C38.7746 49.3429 38.9051 49.4155 39.0456 49.4604C39.1862 49.5053 39.3341 49.5217 39.4809 49.5086C39.6277 49.4956 39.7705 49.4533 39.9012 49.3843C40.0319 49.3152 40.1479 49.2208 40.2426 49.1063C40.3373 48.9918 40.4088 48.8595 40.4531 48.717C40.4974 48.5744 40.5135 48.4245 40.5006 48.2756C40.4878 48.1267 40.4461 47.9819 40.378 47.8494C40.31 47.7168 40.2168 47.5992 40.1039 47.5032C38.6907 46.4406 36.9818 45.8597 35.2227 45.8438C32.0609 45.8438 29.9531 47.7563 29.9531 50.625C29.9531 53.4938 32.8098 54.3375 35.1117 54.9563C37.4137 55.575 38.8281 56.0813 38.8281 57.375C38.8281 58.0782 38.8281 59.9063 35.2227 59.9063C33.9766 59.8987 32.7643 59.4954 31.7559 58.7532C31.5308 58.5647 31.2416 58.4738 30.9508 58.5001C30.6601 58.5264 30.3913 58.6679 30.2027 58.8938C30.0152 59.1266 29.9248 59.4245 29.9507 59.7239C29.9766 60.0234 30.1168 60.3007 30.3414 60.4969C31.7546 61.5594 33.4635 62.1404 35.2227 62.1563C38.9113 62.1563 41.0469 60.4125 41.0469 57.375C41.0469 54.3375 38.0793 53.4094 35.6664 52.7907ZM53.4164 52.7907C51.0312 52.1438 49.9219 51.7219 49.9219 50.625C49.9219 49.05 51.059 48.0938 52.9727 48.0938C54.2117 48.0917 55.4181 48.4963 56.4117 49.2469C56.6397 49.4408 56.9344 49.535 57.2309 49.5086C57.5273 49.4822 57.8013 49.3375 57.9926 49.1063C58.1838 48.875 58.2767 48.5762 58.2506 48.2756C58.2246 47.975 58.0819 47.6971 57.8539 47.5032C56.4407 46.4406 54.7318 45.8597 52.9727 45.8438C49.8109 45.8438 47.7031 47.7563 47.7031 50.625C47.7031 53.4938 50.5598 54.3375 52.8617 54.9563C55.1637 55.575 56.5781 56.0813 56.5781 57.375C56.5781 58.0782 56.5781 59.9063 52.9727 59.9063C51.7266 59.8987 50.5143 59.4954 49.5059 58.7532C49.2808 58.5647 48.9916 58.4738 48.7008 58.5001C48.4101 58.5264 48.1413 58.6679 47.9527 58.8938C47.7652 59.1266 47.6748 59.4245 47.7007 59.7239C47.7266 60.0234 47.8668 60.3007 48.0914 60.4969C49.5046 61.5594 51.2135 62.1404 52.9727 62.1563C56.6613 62.1563 58.7969 60.4125 58.7969 57.375C58.7969 54.3375 55.8293 53.4094 53.4164 52.7907ZM58.7969 24.7782V36C58.7969 36.2984 58.68 36.5845 58.4719 36.7955C58.2639 37.0065 57.9817 37.125 57.6875 37.125C57.3933 37.125 57.1111 37.0065 56.9031 36.7955C56.695 36.5845 56.5781 36.2984 56.5781 36V25.875H42.1562C41.862 25.875 41.5799 25.7565 41.3718 25.5455C41.1638 25.3345 41.0469 25.0484 41.0469 24.75V10.125H15.5312C15.237 10.125 14.9549 10.2436 14.7468 10.4545C14.5388 10.6655 14.4219 10.9517 14.4219 11.25V36C14.4219 36.2984 14.305 36.5845 14.0969 36.7955C13.8889 37.0065 13.6067 37.125 13.3125 37.125C13.0183 37.125 12.7361 37.0065 12.5281 36.7955C12.32 36.5845 12.2031 36.2984 12.2031 36V11.25C12.2031 10.3549 12.5538 9.49648 13.1779 8.86354C13.8021 8.23061 14.6486 7.87503 15.5312 7.87503H42.1562C42.3021 7.8703 42.4473 7.89807 42.5815 7.95638C42.7156 8.01469 42.8356 8.10213 42.9328 8.21253L58.4641 23.9344C58.6679 24.157 58.7861 24.4465 58.7969 24.75V24.7782ZM43.2656 23.625H54.9973L43.2656 11.7282V23.625Z" fill="#FEFEFD"/>
</svg>
