<svg width="71" height="71" viewBox="0 0 71 71" fill="none" xmlns="http://www.w3.org/2000/svg">
<path d="M34.3906 48.8125C34.3906 49.1067 34.2737 49.3889 34.0657 49.597C33.8576 49.805 33.5755 49.9219 33.2812 49.9219H29.9531V59.9063C29.9531 60.2005 29.8362 60.4827 29.6282 60.6907C29.4201 60.8988 29.138 61.0156 28.8438 61.0156C28.5495 61.0156 28.2674 60.8988 28.0593 60.6907C27.8513 60.4827 27.7344 60.2005 27.7344 59.9063V49.9219H24.4062C24.112 49.9219 23.8299 49.805 23.6218 49.597C23.4138 49.3889 23.2969 49.1067 23.2969 48.8125C23.2969 48.5183 23.4138 48.2361 23.6218 48.0281C23.8299 47.82 24.112 47.7031 24.4062 47.7031H33.2812C33.5755 47.7031 33.8576 47.82 34.0657 48.0281C34.2737 48.2361 34.3906 48.5183 34.3906 48.8125ZM17.75 47.7031C17.4558 47.7031 17.1736 47.82 16.9656 48.0281C16.7575 48.2361 16.6406 48.5183 16.6406 48.8125V53.25H11.0938V48.8125C11.0938 48.5183 10.9769 48.2361 10.7688 48.0281C10.5608 47.82 10.2786 47.7031 9.98438 47.7031C9.69015 47.7031 9.40798 47.82 9.19993 48.0281C8.99188 48.2361 8.875 48.5183 8.875 48.8125V59.9063C8.875 60.2005 8.99188 60.4827 9.19993 60.6907C9.40798 60.8988 9.69015 61.0156 9.98438 61.0156C10.2786 61.0156 10.5608 60.8988 10.7688 60.6907C10.9769 60.4827 11.0938 60.2005 11.0938 59.9063V55.4688H16.6406V59.9063C16.6406 60.2005 16.7575 60.4827 16.9656 60.6907C17.1736 60.8988 17.4558 61.0156 17.75 61.0156C18.0442 61.0156 18.3264 60.8988 18.5344 60.6907C18.7425 60.4827 18.8594 60.2005 18.8594 59.9063V48.8125C18.8594 48.5183 18.7425 48.2361 18.5344 48.0281C18.3264 47.82 18.0442 47.7031 17.75 47.7031ZM65.4531 58.7969H59.9062V48.8125C59.9062 48.5183 59.7894 48.2361 59.5813 48.0281C59.3733 47.82 59.0911 47.7031 58.7969 47.7031C58.5027 47.7031 58.2205 47.82 58.0124 48.0281C57.8044 48.2361 57.6875 48.5183 57.6875 48.8125V59.9063C57.6875 60.2005 57.8044 60.4827 58.0124 60.6907C58.2205 60.8988 58.5027 61.0156 58.7969 61.0156H65.4531C65.7473 61.0156 66.0295 60.8988 66.2376 60.6907C66.4456 60.4827 66.5625 60.2005 66.5625 59.9063C66.5625 59.612 66.4456 59.3299 66.2376 59.1218C66.0295 58.9138 65.7473 58.7969 65.4531 58.7969ZM51.3641 47.7586C51.1383 47.6941 50.8984 47.6993 50.6757 47.7736C50.453 47.8478 50.2579 47.9876 50.116 48.1746L45.4844 54.6645L40.8527 48.1746C40.7109 47.9876 40.5158 47.8478 40.2931 47.7736C40.0704 47.6993 39.8304 47.6941 39.6047 47.7586C39.3802 47.8292 39.184 47.9694 39.0444 48.1588C38.9048 48.3483 38.8291 48.5772 38.8281 48.8125V59.9063C38.8281 60.2005 38.945 60.4827 39.1531 60.6907C39.3611 60.8988 39.6433 61.0156 39.9375 61.0156C40.2317 61.0156 40.5139 60.8988 40.7219 60.6907C40.93 60.4827 41.0469 60.2005 41.0469 59.9063V52.2793L44.5691 57.216C44.6748 57.3594 44.8127 57.4759 44.9717 57.5562C45.1307 57.6365 45.3063 57.6783 45.4844 57.6783C45.6625 57.6783 45.8381 57.6365 45.9971 57.5562C46.156 57.4759 46.2939 57.3594 46.3996 57.216L49.9219 52.2793V59.9063C49.9219 60.2005 50.0388 60.4827 50.2468 60.6907C50.4548 60.8988 50.737 61.0156 51.0312 61.0156C51.3255 61.0156 51.6077 60.8988 51.8157 60.6907C52.0237 60.4827 52.1406 60.2005 52.1406 59.9063V48.8125C52.1397 48.5772 52.064 48.3483 51.9244 48.1588C51.7848 47.9694 51.5886 47.8292 51.3641 47.7586ZM57.6875 38.8281C57.3933 38.8281 57.1111 38.7113 56.9031 38.5032C56.695 38.2952 56.5781 38.013 56.5781 37.7188V25.5156H42.1562C41.862 25.5156 41.5798 25.3988 41.3718 25.1907C41.1638 24.9827 41.0469 24.7005 41.0469 24.4063V9.9844H15.5312C15.237 9.9844 14.9549 10.1013 14.7468 10.3093C14.5388 10.5174 14.4219 10.7995 14.4219 11.0938V37.7188C14.4219 38.013 14.305 38.2952 14.0969 38.5032C13.8889 38.7113 13.6067 38.8281 13.3125 38.8281C13.0183 38.8281 12.7361 38.7113 12.5281 38.5032C12.32 38.2952 12.2031 38.013 12.2031 37.7188V11.0938C12.2031 10.2111 12.5538 9.36458 13.1779 8.74043C13.8021 8.11629 14.6486 7.76565 15.5312 7.76565H42.1562C42.3022 7.76098 42.4473 7.78836 42.5815 7.84587C42.7156 7.90337 42.8356 7.98959 42.9328 8.09846L58.4641 23.602C58.6679 23.8214 58.7861 24.1069 58.7969 24.4063V37.7188C58.7969 38.013 58.68 38.2952 58.4719 38.5032C58.2639 38.7113 57.9817 38.8281 57.6875 38.8281ZM43.2656 23.2969H54.9973L43.2656 11.5653V23.2969Z" fill="#FEFEFD"/>
</svg>
