<svg width="227" height="227" viewBox="0 0 227 227" fill="none" xmlns="http://www.w3.org/2000/svg">
<path d="M115.57 191.654C157.651 191.654 191.765 157.54 191.765 115.459C191.765 73.3781 157.651 39.2646 115.57 39.2646C73.4892 39.2646 39.3757 73.3781 39.3757 115.459C39.3757 157.54 73.4892 191.654 115.57 191.654Z" fill="#E5EFEF"/>
<path d="M124.43 14.4565C124.43 11.6368 123.31 8.93254 121.316 6.93869C119.322 4.94484 116.618 3.82471 113.798 3.82471C110.978 3.82471 108.274 4.94484 106.28 6.93869C104.287 8.93254 103.166 11.6368 103.166 14.4565C103.166 20.3288 113.798 78.2473 113.798 78.2473C113.798 78.2473 124.43 20.3288 124.43 14.4565Z" fill="#80B0D1" stroke="#0E1D2B" stroke-width="6" stroke-linecap="round" stroke-linejoin="round"/>
<path d="M113.798 88.8794V95.9673" stroke="#0E1D2B" stroke-width="6" stroke-linecap="round" stroke-linejoin="round"/>
<path d="M124.43 212.916C124.43 215.736 123.31 218.44 121.316 220.434C119.322 222.428 116.618 223.548 113.798 223.548C110.978 223.548 108.274 222.428 106.28 220.434C104.287 218.44 103.166 215.736 103.166 212.916C103.166 207.044 113.798 149.125 113.798 149.125C113.798 149.125 124.43 207.044 124.43 212.916Z" fill="#80B0D1" stroke="#0E1D2B" stroke-width="6" stroke-linecap="round" stroke-linejoin="round"/>
<path d="M14.5678 103.055C11.7481 103.055 9.04387 104.175 7.05002 106.169C5.05617 108.163 3.93604 110.867 3.93604 113.686C3.93604 116.506 5.05617 119.21 7.05002 121.204C9.04387 123.198 11.7481 124.318 14.5678 124.318C20.4401 124.318 78.3586 113.686 78.3586 113.686C78.3586 113.686 20.4401 103.055 14.5678 103.055Z" fill="#80B0D1" stroke="#0E1D2B" stroke-width="6" stroke-linecap="round" stroke-linejoin="round"/>
<path d="M213.028 103.055C215.848 103.055 218.552 104.175 220.546 106.169C222.54 108.163 223.66 110.867 223.66 113.686C223.66 116.506 222.54 119.21 220.546 121.204C218.552 123.198 215.848 124.318 213.028 124.318C207.156 124.318 149.237 113.686 149.237 113.686C149.237 113.686 207.156 103.055 213.028 103.055Z" fill="#80B0D1" stroke="#0E1D2B" stroke-width="6" stroke-linecap="round" stroke-linejoin="round"/>
<path d="M62.4394 47.2933C60.4422 45.5277 57.8276 44.624 55.1664 44.7794C52.5052 44.9347 50.0135 46.1366 48.2353 48.1225C46.2494 49.9008 45.0475 52.3924 44.8922 55.0536C44.7368 57.7148 45.6405 60.3294 47.406 62.3266C51.0988 66.0229 95.0507 94.9308 95.0507 94.9308C95.0507 94.9308 66.1357 50.986 62.4394 47.2933Z" fill="#80B0D1" stroke="#0E1D2B" stroke-width="6" stroke-linecap="round" stroke-linejoin="round"/>
<path d="M180.19 165.045C181.817 167.103 182.631 169.687 182.479 172.306C182.326 174.924 181.217 177.396 179.362 179.251C177.507 181.106 175.036 182.215 172.417 182.367C169.798 182.52 167.215 181.706 165.157 180.079C161.46 176.386 132.552 132.434 132.552 132.434C132.552 132.434 176.497 161.349 180.19 165.045Z" fill="#80B0D1" stroke="#0E1D2B" stroke-width="6" stroke-linecap="round" stroke-linejoin="round"/>
<path d="M47.406 165.045C45.6405 167.043 44.7368 169.657 44.8922 172.318C45.0475 174.98 46.2494 177.471 48.2353 179.249C50.0135 181.235 52.5052 182.437 55.1664 182.593C57.8276 182.748 60.4422 181.844 62.4394 180.079C66.1357 176.386 95.0436 132.434 95.0436 132.434C95.0436 132.434 51.0988 161.349 47.406 165.045Z" fill="#80B0D1" stroke="#0E1D2B" stroke-width="6" stroke-linecap="round" stroke-linejoin="round"/>
<path d="M165.157 47.2933C167.154 45.5277 169.769 44.624 172.43 44.7794C175.091 44.9347 177.583 46.1366 179.361 48.1225C181.347 49.9008 182.549 52.3924 182.704 55.0536C182.86 57.7148 181.956 60.3294 180.19 62.3266C176.498 66.0229 132.546 94.9308 132.546 94.9308C132.546 94.9308 161.461 50.986 165.157 47.2933Z" fill="#80B0D1" stroke="#0E1D2B" stroke-width="6" stroke-linecap="round" stroke-linejoin="round"/>
<path d="M113.798 138.493V131.405" stroke="#0E1D2B" stroke-width="6" stroke-linecap="round" stroke-linejoin="round"/>
<path d="M88.9907 113.687H96.0786" stroke="#0E1D2B" stroke-width="6" stroke-linecap="round" stroke-linejoin="round"/>
<path d="M138.606 113.687H131.518" stroke="#0E1D2B" stroke-width="6" stroke-linecap="round" stroke-linejoin="round"/>
<path d="M113.798 120.775C117.713 120.775 120.886 117.602 120.886 113.687C120.886 109.772 117.713 106.599 113.798 106.599C109.884 106.599 106.71 109.772 106.71 113.687C106.71 117.602 109.884 120.775 113.798 120.775Z" stroke="#0E1D2B" stroke-width="6" stroke-linecap="round" stroke-linejoin="round"/>
<path d="M199.396 28.6323C199.396 28.9327 199.153 29.1762 198.852 29.1762C198.552 29.1762 198.308 28.9327 198.308 28.6323C198.308 28.3319 198.552 28.0884 198.852 28.0884C199.153 28.0884 199.396 28.3319 199.396 28.6323Z" fill="#0E1D2B" stroke="#0E1D2B" stroke-width="6"/>
<path d="M29.2877 198.74C29.2877 199.041 29.0442 199.284 28.7438 199.284C28.4434 199.284 28.1998 199.041 28.1998 198.74C28.1998 198.44 28.4434 198.196 28.7438 198.196C29.0442 198.196 29.2877 198.44 29.2877 198.74Z" fill="#0E1D2B" stroke="#0E1D2B" stroke-width="6"/>
<path d="M29.2877 28.6323C29.2877 28.9327 29.0442 29.1762 28.7438 29.1762C28.4434 29.1762 28.1998 28.9327 28.1998 28.6323C28.1998 28.3319 28.4434 28.0884 28.7438 28.0884C29.0442 28.0884 29.2877 28.3319 29.2877 28.6323Z" fill="#0E1D2B" stroke="#0E1D2B" stroke-width="6"/>
<path d="M199.396 198.74C199.396 199.041 199.153 199.284 198.852 199.284C198.552 199.284 198.308 199.041 198.308 198.74C198.308 198.44 198.552 198.196 198.852 198.196C199.153 198.196 199.396 198.44 199.396 198.74Z" fill="#0E1D2B" stroke="#0E1D2B" stroke-width="6"/>
</svg>
