<svg width="44" height="44" viewBox="0 0 44 44" fill="none" xmlns="http://www.w3.org/2000/svg">
<path fill-rule="evenodd" clip-rule="evenodd" d="M0.916748 21.9998C0.916748 10.3561 10.3563 0.916504 22.0001 0.916504C33.6438 0.916504 43.0834 10.3561 43.0834 21.9998C43.0834 33.6436 33.6438 43.0832 22.0001 43.0832C10.3563 43.0832 0.916748 33.6436 0.916748 21.9998ZM16.3191 14.2872C16.0466 14.0332 15.6862 13.895 15.3137 13.9016C14.9413 13.9082 14.586 14.059 14.3226 14.3224C14.0593 14.5858 13.9084 14.9411 13.9018 15.3135C13.8953 15.6859 14.0335 16.0463 14.2874 16.3188L19.9665 21.9998L14.2874 27.6789C14.1462 27.8105 14.0329 27.9692 13.9543 28.1456C13.8758 28.3219 13.8335 28.5122 13.8301 28.7053C13.8267 28.8983 13.8622 29.09 13.9345 29.269C14.0068 29.448 14.1144 29.6106 14.2509 29.7471C14.3874 29.8836 14.55 29.9912 14.729 30.0635C14.908 30.1358 15.0997 30.1713 15.2927 30.1679C15.4858 30.1645 15.6761 30.1222 15.8524 30.0437C16.0288 29.9651 16.1875 29.8518 16.3191 29.7106L22.0001 24.0315L27.6792 29.7125C27.9502 29.9745 28.3132 30.1196 28.6901 30.1165C29.067 30.1134 29.4276 29.9623 29.6943 29.6959C29.9609 29.4295 30.1123 29.0691 30.1157 28.6922C30.1192 28.3153 29.9745 27.9521 29.7127 27.6808L24.0337 21.9998L29.7127 16.3188C29.854 16.1872 29.9673 16.0285 30.0458 15.8522C30.1244 15.6759 30.1666 15.4855 30.17 15.2925C30.1735 15.0995 30.1379 14.9078 30.0656 14.7288C29.9933 14.5498 29.8857 14.3872 29.7492 14.2507C29.6127 14.1142 29.4501 14.0066 29.2711 13.9343C29.0921 13.862 28.9004 13.8265 28.7074 13.8299C28.5144 13.8333 28.324 13.8755 28.1477 13.9541C27.9714 14.0327 27.8127 14.1459 27.6811 14.2872L22.0001 19.9663L16.3191 14.2872Z" fill="#E6E6E6"/>
</svg>
