<svg width="101" height="100" viewBox="0 0 101 100" fill="none" xmlns="http://www.w3.org/2000/svg">
<g clip-path="url(#clip0_70_200)">
<path d="M70.5 25H80.5V95H20.5V25H30.5V20C30.5 17.3478 31.5536 14.8043 33.4289 12.9289C35.3043 11.0536 37.8478 10 40.5 10H60.5C63.1522 10 65.6957 11.0536 67.5711 12.9289C69.4464 14.8043 70.5 17.3478 70.5 20V25ZM85.5 25H90.5C93.1522 25 95.6957 26.0536 97.5711 27.9289C99.4464 29.8043 100.5 32.3478 100.5 35V85C100.5 87.6522 99.4464 90.1957 97.5711 92.0711C95.6957 93.9464 93.1522 95 90.5 95H85.5V25ZM15.5 25V95H10.5C7.84784 95 5.3043 93.9464 3.42893 92.0711C1.55357 90.1957 0.5 87.6522 0.5 85V35C0.5 29.5 5 25 10.5 25H15.5ZM40.5 20V25H60.5V20H40.5Z" fill="#FEFEFD"/>
</g>
<defs>
<clipPath id="clip0_70_200">
<rect width="100" height="100" fill="white" transform="translate(0.5)"/>
</clipPath>
</defs>
</svg>
